<svg xmlns="http://www.w3.org/2000/svg" version="1.1" xmlns:xlink="http://www.w3.org/1999/xlink" xmlns:svgjs="http://svgjs.dev/svgjs" width="1500" height="1500" viewBox="0 0 1500 1500"><rect width="1500" height="1500" fill="#ffffff"></rect><g transform="matrix(0.6666666666666666,0,0,0.6666666666666666,249.39393939393938,438.5856950067477)"><svg viewBox="0 0 396 247" data-background-color="#ffffff" preserveAspectRatio="xMidYMid meet" height="935" width="1500" xmlns="http://www.w3.org/2000/svg" xmlns:xlink="http://www.w3.org/1999/xlink"><g id="tight-bounds" transform="matrix(1,0,0,1,0.2400000000000091,-0.09999999999999432)"><svg viewBox="0 0 395.52 247.2" height="247.2" width="395.52"><g><svg></svg></g><g><svg viewBox="0 0 395.52 247.2" height="247.2" width="395.52"><g transform="matrix(1,0,0,1,75.54432,77.38398655462186)"><svg viewBox="0 0 244.43135999999998 92.43202689075628" height="92.43202689075628" width="244.43135999999998"><g><svg viewBox="0 0 244.43135999999998 92.43202689075628" height="92.43202689075628" width="244.43135999999998"><g><svg viewBox="0 0 244.43135999999998 92.43202689075628" height="92.43202689075628" width="244.43135999999998"><g><svg viewBox="0 0 244.43135999999998 92.43202689075628" height="92.43202689075628" width="244.43135999999998"><g id="textblocktransform"><svg viewBox="0 0 244.43135999999998 92.43202689075628" height="92.43202689075628" width="244.43135999999998" id="textblock"><g><svg viewBox="0 0 244.43135999999998 92.43202689075628" height="92.43202689075628" width="244.43135999999998"><g transform="matrix(1,0,0,1,0,0)"><svg width="244.43135999999998" viewBox="1.88 -33.33 115.68 43.75" height="92.43202689075628" data-palette-color="#61777f"><path d="M13.26 0.42L13.26 0.42Q10 0.42 7.41-1.04 4.83-2.5 3.35-5.02 1.88-7.53 1.88-10.63L1.88-10.63Q1.88-13.58 3.3-15.99 4.72-18.4 7.14-19.83 9.55-21.25 12.47-21.25L12.47-21.25Q15.35-21.25 17.74-19.88 20.14-18.51 21.56-16.18 22.99-13.85 22.99-10.9L22.99-10.9 22.99-9.38 9.38-9.38Q8.47-9.38 7.53-9.44 6.6-9.51 5.69-9.65L5.69-9.65Q6.08-6.88 8.21-5 10.35-3.13 13.3-3.13L13.3-3.13Q15.28-3.13 16.98-4.03 18.68-4.93 19.72-6.42L19.72-6.42 20.76-2.15Q19.27-0.94 17.34-0.26 15.42 0.42 13.26 0.42ZM5.59-12.19L5.59-12.19Q7.47-12.5 9.38-12.5L9.38-12.5 16.28-12.5Q17.05-12.5 17.8-12.45 18.54-12.4 19.31-12.33L19.31-12.33Q18.82-14.76 16.88-16.34 14.93-17.92 12.47-17.92L12.47-17.92Q9.93-17.92 8.02-16.23 6.11-14.55 5.59-12.19ZM33.37 0.42L33.37 0.42Q31.77 0.42 29.95-0.19 28.12-0.8 26.8-2.22L26.8-2.22 27.84-6.32Q28.82-4.69 30.34-3.73 31.87-2.78 33.61-2.78L33.61-2.78Q35.28-2.78 36.11-3.59 36.94-4.41 36.94-5.59L36.94-5.59Q36.94-6.94 36.06-7.57 35.17-8.19 34.48-8.44L34.48-8.44 31.66-9.51Q30.9-9.83 29.82-10.43 28.75-11.04 27.95-12.19 27.15-13.33 27.15-15.17L27.15-15.17Q27.15-16.84 27.95-18.23 28.75-19.62 30.21-20.43 31.66-21.25 33.64-21.25L33.64-21.25Q35.21-21.25 36.91-20.69 38.61-20.14 39.79-18.82L39.79-18.82 38.75-14.72Q37.91-16.25 36.49-17.15 35.07-18.06 33.54-18.06L33.54-18.06Q32.12-18.06 31.3-17.26 30.48-16.46 30.48-15.42L30.48-15.42Q30.48-14.58 31.04-13.92 31.59-13.26 32.71-12.85L32.71-12.85 35.52-11.77Q36.28-11.49 37.41-10.87 38.54-10.24 39.41-9.06 40.28-7.88 40.28-5.87L40.28-5.87Q40.28-3.06 38.31-1.32 36.35 0.42 33.37 0.42ZM49.44 0L45.69 0 45.69-33.33 49.44-33.33 49.44-17.88Q50.62-19.51 52.36-20.38 54.09-21.25 56.07-21.25L56.07-21.25Q58.29-21.25 60.19-20.16 62.08-19.06 63.26-17 64.44-14.93 64.44-11.98L64.44-11.98 64.44 0 60.69 0 60.69-11.46Q60.69-13.92 59.21-15.82 57.74-17.71 55.06-17.71L55.06-17.71Q52.88-17.71 51.16-16.13 49.44-14.55 49.44-11.56L49.44-11.56 49.44 0ZM80.2 0.42L80.2 0.42Q77.18 0.42 74.68-1.04 72.18-2.5 70.7-4.97 69.23-7.43 69.23-10.42L69.23-10.42Q69.23-13.44 70.7-15.89 72.18-18.33 74.68-19.79 77.18-21.25 80.2-21.25L80.2-21.25Q83.26-21.25 85.74-19.79 88.22-18.33 89.7-15.89 91.17-13.44 91.17-10.42L91.17-10.42Q91.17-7.43 89.7-4.97 88.22-2.5 85.74-1.04 83.26 0.42 80.2 0.42ZM80.2-3.13L80.2-3.13Q82.21-3.13 83.85-4.11 85.48-5.1 86.45-6.75 87.42-8.4 87.42-10.42L87.42-10.42Q87.42-12.43 86.45-14.08 85.48-15.73 83.85-16.72 82.21-17.71 80.2-17.71L80.2-17.71Q78.19-17.71 76.56-16.72 74.92-15.73 73.95-14.08 72.98-12.43 72.98-10.42L72.98-10.42Q72.98-8.4 73.95-6.75 74.92-5.1 76.56-4.11 78.19-3.13 80.2-3.13ZM100.13 10.42L96.38 10.42 96.38-20.83 99.85-20.83 99.85-18.09Q101.27-19.51 103.15-20.31 105.02-21.11 107.18-21.11L107.18-21.11Q110.06-21.11 112.4-19.67 114.75-18.23 116.15-15.8 117.56-13.37 117.56-10.42L117.56-10.42Q117.56-7.47 116.15-5.03 114.75-2.6 112.4-1.16 110.06 0.28 107.18 0.28L107.18 0.28Q105.13 0.28 103.32-0.45 101.52-1.18 100.13-2.47L100.13-2.47 100.13 10.42ZM106.69-3.13L106.69-3.13Q108.67-3.13 110.29-4.11 111.9-5.1 112.85-6.75 113.81-8.4 113.81-10.42L113.81-10.42Q113.81-12.43 112.85-14.08 111.9-15.73 110.29-16.72 108.67-17.71 106.69-17.71L106.69-17.71Q104.71-17.71 103.1-16.72 101.48-15.73 100.53-14.08 99.57-12.43 99.57-10.42L99.57-10.42Q99.57-8.4 100.53-6.75 101.48-5.1 103.1-4.11 104.71-3.13 106.69-3.13Z" opacity="1" transform="matrix(1,0,0,1,0,0)" fill="#000000" class="wordmark-text-0" data-fill-palette-color="primary" id="text-0"></path></svg></g></svg></g></svg></g></svg></g></svg></g></svg></g></svg></g><g><path d="M245.816 0c68.262 0 123.6 55.338 123.6 123.6 0 68.262-55.338 123.6-123.6 123.6-47.653 0-89.008-26.967-109.635-66.473h4.725c20.257 37.122 59.642 62.306 104.91 62.305 65.961 0 119.432-53.472 119.432-119.432 0-65.961-53.472-119.432-119.432-119.432-45.267 0-84.653 25.184-104.91 62.306l-4.725 0c20.627-39.506 61.982-66.473 109.635-66.474z" fill="#000000" stroke="transparent" data-fill-palette-color="tertiary"></path></g></svg></g><defs></defs></svg><rect width="395.52" height="247.2" fill="none" stroke="none" visibility="hidden"></rect></g></svg></g></svg>